<svg width="200" height="44" viewBox="0 0 200 44" fill="none" xmlns="http://www.w3.org/2000/svg" role="img" aria-label="BillSnap">
  <!-- Icon — all ink, no gradients -->
  <g>
    <g transform="rotate(-8 22 22)">
      <path d="M10 10 C10 8.9 10.9 8 12 8H26L34 16V37 C34 38.1 33.1 39 32 39H12 C10.9 39 10 38.1 10 37Z"
            fill="#1A0D2E"/>
      <path d="M26 8L34 16H28 C26.9 16 26 15.1 26 14Z" fill="#3D1F78"/>
      <line x1="14" y1="22" x2="28" y2="22" stroke="rgba(255,255,255,0.4)" stroke-width="1.5" stroke-linecap="round"/>
      <line x1="14" y1="27" x2="26" y2="27" stroke="rgba(255,255,255,0.25)" stroke-width="1.5" stroke-linecap="round"/>
    </g>
    <path d="M30,6 L21,20 L27,20 L24,32 L35,17 L29,17 Z" fill="#1A0D2E"/>
  </g>

  <!-- Wordmark — all ink -->
  <text x="54" y="30" font-family="Urbanist, system-ui, sans-serif" font-size="22" font-weight="700" letter-spacing="-0.02em" fill="#1A0D2E">BillSnap</text>
</svg>
